<?xml version="1.0" encoding="UTF-8"?>
<svg width="134px" height="36px" viewBox="0 0 134 36" version="1.1" xmlns="http://www.w3.org/2000/svg" xmlns:xlink="http://www.w3.org/1999/xlink">
    <!-- Generator: Sketch 42 (36781) - http://www.bohemiancoding.com/sketch -->
    <title>Group</title>
    <desc>Created with Sketch.</desc>
    <defs></defs>
    <g id="Page-1" stroke="none" stroke-width="1" fill="none" fill-rule="evenodd">
        <g id="Entry" transform="translate(-31.000000, -24.000000)" fill="#FFFFFF">
            <g id="Group" transform="translate(31.000000, 22.000000)">
                <g id="Spotify" transform="translate(0.000000, 2.000000)">
                    <path d="M29.5543889,14.7222026 C29.0982222,15.4898842 28.1123889,15.7405876 27.3423889,15.2882315 C21.7836111,11.9796483 12.6108889,11.6787265 7.30333333,13.2900014 C6.45205556,13.5508263 5.55177778,13.0669378 5.28811111,12.2140014 C5.03261111,11.3610651 5.51327778,10.4563531 6.3665,10.200589 C12.4615556,8.34678582 22.5901667,8.70532272 28.9893333,12.5094732 C29.7573889,12.9649436 30.0093889,13.9560781 29.5543889,14.7222026 M27.1596111,20.4366035 C26.7718889,21.0695904 25.9439444,21.2661823 25.312,20.8765022 C20.6783889,18.0253357 13.6076111,17.1988712 8.12272222,18.8654255 C7.41027778,19.0807033 6.65738889,18.6793444 6.44466667,17.9700564 C6.22883333,17.2568755 6.63016667,16.503987 7.33872222,16.2890984 C13.6052778,14.3846874 21.3939444,15.3069175 26.7193889,18.582411 C27.3517222,18.9752055 27.5527778,19.7993343 27.1596111,20.4366035 M25.0510556,25.4039551 C24.7434444,25.9162619 24.0835,26.0739247 23.576,25.7656064 C19.5226111,23.2877699 14.4242778,22.7268017 8.41866667,24.0986628 C7.84077778,24.2321896 7.26288889,23.8697598 7.13455556,23.2897164 C7,22.7116194 7.36127778,22.1346903 7.94227778,22.00311 C14.5121667,20.4996686 20.1495,21.1493951 24.6956111,23.9258177 C25.2007778,24.2364718 25.3621667,24.8974877 25.0510556,25.4039551 M17.5,0 C7.83533333,0 0,7.84304342 0,17.5180897 C0,27.193136 7.83533333,35.0361795 17.5,35.0361795 C27.1650556,35.0361795 35,27.193136 35,17.5180897 C35,7.84304342 27.1650556,0 17.5,0" id="Fill-185"></path>
                </g>
                <text id="Spotify" font-family="Baloo-Regular, Baloo" font-size="24" font-weight="normal" letter-spacing="0.600000024">
                    <tspan x="49.4359999" y="25">Spotify</tspan>
                </text>
            </g>
        </g>
    </g>
</svg>